<svg width="93" height="72" viewBox="0 0 93 72" fill="none" xmlns="http://www.w3.org/2000/svg">
    <path
        d="M43.5715 21.6566L30.0134 15.5606L34.1851 13.947V6.59596L40.0951 8.92677V16.6364L44.0929 14.8434L47.2217 16.4571V6.59596L43.9191 5.16162L40.0951 6.41667L35.228 4.44444L39.5736 3.36869L35.9233 1.75505L40.6165 0.5L44.0929 1.75505L46.8741 1.03788L51.7411 2.83081L48.2647 3.72727L51.2196 4.98232V13.947L58.5201 16.6364L43.5715 21.6566Z"
        fill="#032700" />
    <path
        d="M26.0155 66.4798L34.7066 71.5L35.9233 70.9621L36.7924 71.5L39.7474 70.2449V67.3763L34.8804 29.904L33.4898 19.6843L23.582 14.8434L31.5778 12.5126L28.2752 11.0783L14.1956 15.3813L8.63335 29.0076H4.11399L2.5496 32.4141L0.289917 34.9242V38.5101L4.80928 40.4823L5.33074 52.6742L12.6312 58.2323H14.7171V53.75H16.1077L26.0155 60.3838V66.4798Z"
        fill="#032700" />
    <path d="M16.1755 51.2213V41.4652H10.4036V31.8623H29.8136V41.4652H24.0417V51.2213H16.1755Z"
        fill="#FAFAFA" />
    <path
        d="M72.7309 41.5169C72.7309 46.6338 68.6276 50.773 63.5769 50.773C58.5263 50.773 54.423 46.6338 54.423 41.5169C54.423 36.3999 58.5263 32.2607 63.5769 32.2607C68.6276 32.2607 72.7309 36.3999 72.7309 41.5169Z"
        fill="#FAFAFA" stroke="#032700" />
    <mask id="path-4-inside-1_671_594" fill="white">
        <path fill-rule="evenodd" clip-rule="evenodd"
            d="M32.1635 31.8623H38.0887V35.1314H45.6484V31.8623H51.5736V51.2724H45.6484V47.9011H38.0887V51.2724H32.1635V47.9011H32.1635V35.1314H32.1635V31.8623Z" />
    </mask>
    <path fill-rule="evenodd" clip-rule="evenodd"
        d="M32.1635 31.8623H38.0887V35.1314H45.6484V31.8623H51.5736V51.2724H45.6484V47.9011H38.0887V51.2724H32.1635V47.9011H32.1635V35.1314H32.1635V31.8623Z"
        fill="#FAFAFA" />
    <path
        d="M38.0887 31.8623H39.0887V30.8623H38.0887V31.8623ZM32.1635 31.8623V30.8623H31.1635V31.8623H32.1635ZM38.0887 35.1314H37.0887V36.1314H38.0887V35.1314ZM45.6484 35.1314V36.1314H46.6484V35.1314H45.6484ZM45.6484 31.8623V30.8623H44.6484V31.8623H45.6484ZM51.5736 31.8623H52.5736V30.8623H51.5736V31.8623ZM51.5736 51.2724V52.2724H52.5736V51.2724H51.5736ZM45.6484 51.2724H44.6484V52.2724H45.6484V51.2724ZM45.6484 47.9011H46.6484V46.9011H45.6484V47.9011ZM38.0887 47.9011V46.9011H37.0887V47.9011H38.0887ZM38.0887 51.2724V52.2724H39.0887V51.2724H38.0887ZM32.1635 51.2724H31.1635V52.2724H32.1635V51.2724ZM32.1635 47.9011H33.1635V46.9011H32.1635V47.9011ZM32.1635 47.9011H31.1635V48.9011H32.1635V47.9011ZM32.1635 35.1314V34.1314H31.1635V35.1314H32.1635ZM32.1635 35.1314V36.1314H33.1635V35.1314H32.1635ZM38.0887 30.8623H32.1635V32.8623H38.0887V30.8623ZM39.0887 35.1314V31.8623H37.0887V35.1314H39.0887ZM45.6484 34.1314H38.0887V36.1314H45.6484V34.1314ZM46.6484 35.1314V31.8623H44.6484V35.1314H46.6484ZM45.6484 32.8623H51.5736V30.8623H45.6484V32.8623ZM50.5736 31.8623V51.2724H52.5736V31.8623H50.5736ZM51.5736 50.2724H45.6484V52.2724H51.5736V50.2724ZM46.6484 51.2724V47.9011H44.6484V51.2724H46.6484ZM38.0887 48.9011H45.6484V46.9011H38.0887V48.9011ZM39.0887 51.2724V47.9011H37.0887V51.2724H39.0887ZM32.1635 52.2724H38.0887V50.2724H32.1635V52.2724ZM31.1635 47.9011V51.2724H33.1635V47.9011H31.1635ZM32.1635 48.9011H32.1635V46.9011H32.1635V48.9011ZM31.1635 35.1314V47.9011H33.1635V35.1314H31.1635ZM32.1635 34.1314H32.1635V36.1314H32.1635V34.1314ZM31.1635 31.8623V35.1314H33.1635V31.8623H31.1635Z"
        fill="#032700" mask="url(#path-4-inside-1_671_594)" />
    <path fill-rule="evenodd" clip-rule="evenodd"
        d="M35.1348 31.8623H32.1635V35.1314H32.1635V47.9011H32.1635V51.2724H37.6558L35.1348 31.8623Z"
        fill="#FAFAFA" />
    <mask id="path-7-inside-2_671_594" fill="white">
        <path fill-rule="evenodd" clip-rule="evenodd"
            d="M92.1303 39.5553H82.6713V43.5219H92.1303V51.0687H83.8554C78.5472 51.0412 74.2526 46.7294 74.2526 41.4147C74.2526 36.1 78.5472 31.7884 83.8554 31.7609L83.9018 31.7607H83.9065H83.9113H92.1303V39.5553Z" />
    </mask>
    <path fill-rule="evenodd" clip-rule="evenodd"
        d="M92.1303 39.5553H82.6713V43.5219H92.1303V51.0687H83.8554C78.5472 51.0412 74.2526 46.7294 74.2526 41.4147C74.2526 36.1 78.5472 31.7884 83.8554 31.7609L83.9018 31.7607H83.9065H83.9113H92.1303V39.5553Z"
        fill="#FAFAFA" />
    <path
        d="M82.6713 39.5553V38.5553H81.6713V39.5553H82.6713ZM92.1303 39.5553V40.5553H93.1303V39.5553H92.1303ZM82.6713 43.5219H81.6713V44.5219H82.6713V43.5219ZM92.1303 43.5219H93.1303V42.5219H92.1303V43.5219ZM92.1303 51.0687V52.0687H93.1303V51.0687H92.1303ZM83.8554 51.0687L83.8503 52.0687H83.8554V51.0687ZM83.8554 31.7609L83.8526 30.7609L83.8503 30.7609L83.8554 31.7609ZM83.9018 31.7607V30.7607L83.8989 30.7607L83.9018 31.7607ZM92.1303 31.7607H93.1303V30.7607H92.1303V31.7607ZM82.6713 40.5553H92.1303V38.5553H82.6713V40.5553ZM83.6713 43.5219V39.5553H81.6713V43.5219H83.6713ZM92.1303 42.5219H82.6713V44.5219H92.1303V42.5219ZM91.1303 43.5219V51.0687H93.1303V43.5219H91.1303ZM92.1303 50.0687H83.8554V52.0687H92.1303V50.0687ZM83.8606 50.0687C79.1024 50.044 75.2526 46.1789 75.2526 41.4147H73.2526C73.2526 47.2799 77.992 52.0383 83.8503 52.0686L83.8606 50.0687ZM75.2526 41.4147C75.2526 36.6506 79.1024 32.7855 83.8606 32.7609L83.8503 30.7609C77.9921 30.7912 73.2526 35.5495 73.2526 41.4147H75.2526ZM83.8583 32.7609L83.9046 32.7607L83.8989 30.7607L83.8526 30.7609L83.8583 32.7609ZM83.9018 32.7607H83.9065V30.7607H83.9018V32.7607ZM83.9065 32.7607H83.9113V30.7607H83.9065V32.7607ZM83.9113 32.7607H92.1303V30.7607H83.9113V32.7607ZM91.1303 31.7607V39.5553H93.1303V31.7607H91.1303Z"
        fill="#032700" mask="url(#path-7-inside-2_671_594)" />
</svg>