<svg width="60" height="72" viewBox="0 0 60 72" fill="none" xmlns="http://www.w3.org/2000/svg">
    <path
        d="M44.0715 21.6566L30.5134 15.5606L34.6851 13.947V6.59596L40.5951 8.92677V16.6364L44.5929 14.8434L47.7217 16.4571V6.59596L44.4191 5.16162L40.5951 6.41667L35.728 4.44444L40.0736 3.36869L36.4233 1.75505L41.1165 0.5L44.5929 1.75505L47.3741 1.03788L52.2411 2.83081L48.7647 3.72727L51.7196 4.98232V13.947L59.0201 16.6364L44.0715 21.6566Z"
        fill="#FFFFFF" />
    <path
        d="M26.5155 66.4798L35.2066 71.5L36.4233 70.9621L37.2924 71.5L40.2474 70.2449V67.3763L35.3804 29.904L33.9898 19.6843L24.082 14.8434L32.0778 12.5126L28.7752 11.0783L14.6956 15.3813L9.13335 29.0076H4.61399L3.0496 32.4141L0.789917 34.9242V38.5101L5.30928 40.4823L5.83074 52.6742L13.1312 58.2323H15.2171V53.75H16.6077L26.5155 60.3838V66.4798Z"
        fill="#FFFFFF" />
</svg>
    